<svg width="100" height="100" viewBox="0 0 100 100" fill="none" xmlns="http://www.w3.org/2000/svg">
<circle cx="50" cy="50" r="50" fill="url(#paint0_linear_76_5)"/>
<circle cx="50" cy="33" r="11" fill="url(#paint1_linear_76_5)"/>
<path d="M50.5 50L54.0017 50.0959L57.465 50.3824L60.8521 50.8565L64.1257 51.513L67.25 52.3446L70.1908 53.3422L72.9159 54.495L75.3954 55.7902L77.6021 57.2138L79.5118 58.75L81.1038 60.3821L82.0285 61.6406C82.2494 61.9412 82.4459 62.259 82.6162 62.5909L82.9804 63.3009C83.1717 63.6739 83.3291 64.0634 83.4508 64.4646L83.6184 65.0176C83.7502 65.452 83.8393 65.8982 83.8846 66.3499L83.9299 66.8012C83.9765 67.2659 83.9765 67.7341 83.9299 68.1988L83.8846 68.6501C83.8393 69.1018 83.7502 69.548 83.6184 69.9824L83.4508 70.5354C83.3291 70.9366 83.1717 71.3261 82.9804 71.6991L82.6162 72.4091C82.4459 72.741 82.2494 73.0588 82.0285 73.3594L81.1038 74.6179L79.5118 76.25L77.6021 77.7862L75.3954 79.2098L72.9159 80.505L70.1908 81.6578L67.25 82.6554L64.1257 83.487L60.8521 84.1435L57.465 84.6176L54.0017 84.9041L50.5 85L46.9983 84.9041L43.535 84.6176L40.1479 84.1435L36.8743 83.487L33.75 82.6554L30.8092 81.6578L28.0841 80.505L25.6046 79.2098L23.3979 77.7862L21.4881 76.25L19.8962 74.6179L18.9715 73.3594C18.7506 73.0588 18.5541 72.741 18.3838 72.4091L18.0196 71.6991C17.8283 71.3261 17.6709 70.9366 17.5492 70.5354L17.3816 69.9824C17.2498 69.548 17.1607 69.1018 17.1154 68.6501L17.0701 68.1988C17.0235 67.7341 17.0235 67.2659 17.0701 66.8012L17.1154 66.3499C17.1607 65.8982 17.2498 65.452 17.3816 65.0176L17.5492 64.4646C17.6709 64.0634 17.8283 63.6739 18.0196 63.3009L18.3838 62.5909C18.5541 62.259 18.7506 61.9412 18.9715 61.6406L19.8962 60.3821L21.4881 58.75L23.3979 57.2138L25.6046 55.7902L28.0841 54.495L30.8092 53.3422L33.75 52.3446L36.8743 51.513L40.1479 50.8565L43.535 50.3824L46.9983 50.0959L50.5 50Z" fill="url(#paint2_linear_76_5)"/>
<defs>
<linearGradient id="paint0_linear_76_5" x1="50" y1="0" x2="50" y2="100" gradientUnits="userSpaceOnUse">
<stop stop-color="#F0F2F5"/>
<stop offset="0.5" stop-color="#EAEAF2"/>
<stop offset="1" stop-color="white"/>
</linearGradient>
<linearGradient id="paint1_linear_76_5" x1="50" y1="22" x2="50" y2="44" gradientUnits="userSpaceOnUse">
<stop stop-color="#FF6EC7"/>
<stop offset="0.25" stop-color="#8B6BFF"/>
<stop offset="0.5" stop-color="#00D1FF"/>
<stop offset="1" stop-color="#6AFFB7"/>
</linearGradient>
<linearGradient id="paint2_linear_76_5" x1="50.5" y1="50" x2="50.5" y2="85" gradientUnits="userSpaceOnUse">
<stop stop-color="#FFC1FA"/>
<stop offset="0.25" stop-color="#C29FFF"/>
<stop offset="0.5" stop-color="#84E6FF"/>
<stop offset="1" stop-color="#E5FFD8"/>
</linearGradient>
</defs>
</svg>
